<?xml version="1.0" encoding="UTF-8" standalone="no"?>
<!DOCTYPE svg PUBLIC "-//W3C//DTD SVG 1.1//EN"
 "http://www.w3.org/Graphics/SVG/1.1/DTD/svg11.dtd">
<!-- Generated by graphviz version 2.40.1 (20161225.0304)
 -->
<!-- Title: %0 Pages: 1 -->
<svg width="88pt" height="130pt"
 viewBox="0.00 0.00 88.00 130.00" xmlns="http://www.w3.org/2000/svg" xmlns:xlink="http://www.w3.org/1999/xlink">
<g id="graph0" class="graph" transform="scale(1 1) rotate(0) translate(4 126)">
<title>%0</title>
<g id="a_graph0"><a xlink:title="Data Model">
</a>
</g>
<!-- ChickWeight -->
<g id="ChickWeight" class="node">
<title>ChickWeight</title>
<polygon fill="#efebdd" stroke="transparent" points="1,-101 1,-121 79,-121 79,-101 1,-101"/>
<text text-anchor="start" x="2.6739" y="-106.4" font-family="Times,serif" font-size="14.00" fill="#000000">ChickWeight</text>
<polygon fill="#ffffff" stroke="transparent" points="1,-81 1,-101 79,-101 79,-81 1,-81"/>
<text text-anchor="start" x="3" y="-86.4" font-family="Times,serif" font-size="14.00" fill="#444444">weight</text>
<polygon fill="#ffffff" stroke="transparent" points="1,-61 1,-81 79,-81 79,-61 1,-61"/>
<text text-anchor="start" x="3" y="-66.4" font-family="Times,serif" font-size="14.00" fill="#444444">Time</text>
<polygon fill="#ffffff" stroke="transparent" points="1,-41 1,-61 79,-61 79,-41 1,-41"/>
<text text-anchor="start" x="3" y="-46.4" font-family="Times,serif" font-size="14.00" fill="#444444">Chick</text>
<polygon fill="#ffffff" stroke="transparent" points="1,-21 1,-41 79,-41 79,-21 1,-21"/>
<text text-anchor="start" x="3" y="-26.4" font-family="Times,serif" font-size="14.00" fill="#444444">Diet</text>
<polygon fill="#ffffff" stroke="transparent" points="1,-1 1,-21 79,-21 79,-1 1,-1"/>
<text text-anchor="start" x="3" y="-7.4" font-family="Times,serif" text-decoration="underline" font-size="14.00" fill="#444444">Time, Chick</text>
<polygon fill="none" stroke="#555555" points="0,0 0,-122 80,-122 80,0 0,0"/>
</g>
</g>
</svg>

