<?xml version="1.0" encoding="UTF-8" standalone="no"?>
<!DOCTYPE svg PUBLIC "-//W3C//DTD SVG 1.1//EN"
 "http://www.w3.org/Graphics/SVG/1.1/DTD/svg11.dtd">
<!-- Generated by graphviz version 2.40.1 (20161225.0304)
 -->
<!-- Title: %0 Pages: 1 -->
<svg width="203pt" height="240pt"
 viewBox="0.00 0.00 203.00 240.00" xmlns="http://www.w3.org/2000/svg" xmlns:xlink="http://www.w3.org/1999/xlink">
<g id="graph0" class="graph" transform="scale(1 1) rotate(0) translate(4 236)">
<title>%0</title>
<g id="a_graph0"><a xlink:title="Data Model">
</a>
</g>
<!-- plots -->
<g id="plots" class="node">
<title>plots</title>
<polygon fill="#efebdd" stroke="transparent" points="135,-161 135,-181 191,-181 191,-161 135,-161"/>
<text text-anchor="start" x="149.3871" y="-166.4" font-family="Times,serif" font-size="14.00" fill="#000000">plots</text>
<polygon fill="#ffffff" stroke="transparent" points="135,-141 135,-161 191,-161 191,-141 135,-141"/>
<text text-anchor="start" x="137" y="-147.4" font-family="Times,serif" text-decoration="underline" font-size="14.00" fill="#444444">plot_id</text>
<polygon fill="#ffffff" stroke="transparent" points="135,-121 135,-141 191,-141 191,-121 135,-121"/>
<text text-anchor="start" x="136.5568" y="-126.4" font-family="Times,serif" font-size="14.00" fill="#444444">plot_type</text>
<polygon fill="none" stroke="#555555" points="134,-120 134,-182 192,-182 192,-120 134,-120"/>
</g>
<!-- species -->
<g id="species" class="node">
<title>species</title>
<polygon fill="#efebdd" stroke="transparent" points="132,-81 132,-101 194,-101 194,-81 132,-81"/>
<text text-anchor="start" x="142.7882" y="-86.4" font-family="Times,serif" font-size="14.00" fill="#000000">species</text>
<polygon fill="#ffffff" stroke="transparent" points="132,-61 132,-81 194,-81 194,-61 132,-61"/>
<text text-anchor="start" x="133.8429" y="-67.4" font-family="Times,serif" text-decoration="underline" font-size="14.00" fill="#444444">species_id</text>
<polygon fill="#ffffff" stroke="transparent" points="132,-41 132,-61 194,-61 194,-41 132,-41"/>
<text text-anchor="start" x="134" y="-46.4" font-family="Times,serif" font-size="14.00" fill="#444444">genus</text>
<polygon fill="#ffffff" stroke="transparent" points="132,-21 132,-41 194,-41 194,-21 132,-21"/>
<text text-anchor="start" x="134" y="-26.4" font-family="Times,serif" font-size="14.00" fill="#444444">species</text>
<polygon fill="#ffffff" stroke="transparent" points="132,-1 132,-21 194,-21 194,-1 132,-1"/>
<text text-anchor="start" x="134" y="-6.4" font-family="Times,serif" font-size="14.00" fill="#444444">taxa</text>
<polygon fill="none" stroke="#555555" points="131,0 131,-102 195,-102 195,0 131,0"/>
</g>
<!-- surveys -->
<g id="surveys" class="node">
<title>surveys</title>
<polygon fill="#efebdd" stroke="transparent" points="1.5,-211 1.5,-231 94.5,-231 94.5,-211 1.5,-211"/>
<text text-anchor="start" x="26.6178" y="-216.4" font-family="Times,serif" font-size="14.00" fill="#000000">surveys</text>
<polygon fill="#ffffff" stroke="transparent" points="1.5,-191 1.5,-211 94.5,-211 94.5,-191 1.5,-191"/>
<text text-anchor="start" x="3.5" y="-197.4" font-family="Times,serif" text-decoration="underline" font-size="14.00" fill="#444444">record_id</text>
<polygon fill="#ffffff" stroke="transparent" points="1.5,-171 1.5,-191 94.5,-191 94.5,-171 1.5,-171"/>
<text text-anchor="start" x="3.5" y="-176.4" font-family="Times,serif" font-size="14.00" fill="#444444">month</text>
<polygon fill="#ffffff" stroke="transparent" points="1.5,-151 1.5,-171 94.5,-171 94.5,-151 1.5,-151"/>
<text text-anchor="start" x="3.5" y="-156.4" font-family="Times,serif" font-size="14.00" fill="#444444">day</text>
<polygon fill="#ffffff" stroke="transparent" points="1.5,-131 1.5,-151 94.5,-151 94.5,-131 1.5,-131"/>
<text text-anchor="start" x="3.5" y="-136.4" font-family="Times,serif" font-size="14.00" fill="#444444">year</text>
<polygon fill="#ffffff" stroke="transparent" points="1.5,-111 1.5,-131 94.5,-131 94.5,-111 1.5,-111"/>
<text text-anchor="start" x="3.5" y="-116.4" font-family="Times,serif" font-size="14.00" fill="#444444">plot_id</text>
<polygon fill="#ffffff" stroke="transparent" points="1.5,-91 1.5,-111 94.5,-111 94.5,-91 1.5,-91"/>
<text text-anchor="start" x="3.5" y="-96.4" font-family="Times,serif" font-size="14.00" fill="#444444">species_id</text>
<polygon fill="#ffffff" stroke="transparent" points="1.5,-71 1.5,-91 94.5,-91 94.5,-71 1.5,-71"/>
<text text-anchor="start" x="3.5" y="-76.4" font-family="Times,serif" font-size="14.00" fill="#444444">sex</text>
<polygon fill="#ffffff" stroke="transparent" points="1.5,-51 1.5,-71 94.5,-71 94.5,-51 1.5,-51"/>
<text text-anchor="start" x="3.2812" y="-56.4" font-family="Times,serif" font-size="14.00" fill="#444444">hindfoot_length</text>
<polygon fill="#ffffff" stroke="transparent" points="1.5,-31 1.5,-51 94.5,-51 94.5,-31 1.5,-31"/>
<text text-anchor="start" x="3.5" y="-36.4" font-family="Times,serif" font-size="14.00" fill="#444444">weight</text>
<polygon fill="none" stroke="#555555" points="0,-30 0,-232 95,-232 95,-30 0,-30"/>
</g>
<!-- surveys&#45;&gt;plots -->
<g id="surveys_1" class="edge">
<title>surveys:plot_id&#45;&gt;plots:plot_id</title>
<path fill="none" stroke="#555555" d="M94.5,-121C112.8753,-121 113.2831,-141.1874 125.2013,-148.4422"/>
<polygon fill="#555555" stroke="#555555" points="124.4402,-151.8608 135,-151 126.2082,-145.0877 124.4402,-151.8608"/>
</g>
<!-- surveys&#45;&gt;species -->
<g id="surveys_2" class="edge">
<title>surveys:species_id&#45;&gt;species:species_id</title>
<path fill="none" stroke="#555555" d="M94.5,-101C111.675,-101 111.6705,-81.5743 122.1348,-73.9862"/>
<polygon fill="#555555" stroke="#555555" points="123.4429,-77.2471 132,-71 121.4148,-70.5474 123.4429,-77.2471"/>
</g>
</g>
</svg>

