<?xml version="1.0" encoding="UTF-8" standalone="no"?>
<!DOCTYPE svg PUBLIC "-//W3C//DTD SVG 1.1//EN"
 "http://www.w3.org/Graphics/SVG/1.1/DTD/svg11.dtd">
<!-- Generated by graphviz version 2.40.1 (20161225.0304)
 -->
<!-- Title: %0 Pages: 1 -->
<svg width="140pt" height="110pt"
 viewBox="0.00 0.00 140.00 110.00" xmlns="http://www.w3.org/2000/svg" xmlns:xlink="http://www.w3.org/1999/xlink">
<g id="graph0" class="graph" transform="scale(1 1) rotate(0) translate(4 106)">
<title>%0</title>
<g id="a_graph0"><a xlink:title="Data Model">
</a>
</g>
<!-- plots -->
<g id="plots" class="node">
<title>plots</title>
<polygon fill="#efebdd" stroke="transparent" points="90,-8 90,-28 121,-28 121,-8 90,-8"/>
<text text-anchor="start" x="91.8871" y="-13.4" font-family="Times,serif" font-size="14.00" fill="#000000">plots</text>
<polygon fill="none" stroke="#555555" points="88.5,-7 88.5,-29 121.5,-29 121.5,-7 88.5,-7"/>
</g>
<!-- species -->
<g id="species" class="node">
<title>species</title>
<polygon fill="#efebdd" stroke="transparent" points="83,-68 83,-88 127,-88 127,-68 83,-68"/>
<text text-anchor="start" x="84.7882" y="-73.4" font-family="Times,serif" font-size="14.00" fill="#000000">species</text>
<polygon fill="none" stroke="#555555" points="82,-67 82,-89 128,-89 128,-67 82,-67"/>
</g>
<!-- surveys -->
<g id="surveys" class="node">
<title>surveys</title>
<polygon fill="#efebdd" stroke="transparent" points="4,-74 4,-94 50,-94 50,-74 4,-74"/>
<text text-anchor="start" x="5.6178" y="-79.4" font-family="Times,serif" font-size="14.00" fill="#000000">surveys</text>
<polygon fill="none" stroke="#555555" points="3,-73 3,-95 51,-95 51,-73 3,-73"/>
</g>
</g>
</svg>

